<svg width="17" height="16" viewBox="0 0 17 16" fill="none" xmlns="http://www.w3.org/2000/svg">
<path fill-rule="evenodd" clip-rule="evenodd" d="M7.31229 11.6395C7.50029 11.8275 7.75429 11.9325 8.02029 11.9325C8.03329 11.9325 8.04329 11.9255 8.05629 11.9255C8.06129 11.9255 8.06629 11.9285 8.07129 11.9285C8.40829 11.9285 8.69129 11.7515 8.87229 11.4975L11.7663 8.61547C12.1583 8.22547 12.1583 7.59247 11.7663 7.20147C11.3753 6.81147 10.7413 6.81147 10.3493 7.20147L9.07129 8.47247V1.92847C9.07129 1.37647 8.62429 0.928467 8.07129 0.928467C7.51929 0.928467 7.07129 1.37647 7.07129 1.92847V8.54847L5.76229 7.20947C5.37129 6.81947 4.73729 6.81947 4.34629 7.20947C3.95429 7.60047 3.95429 8.23347 4.34629 8.62347L7.31229 11.6395ZM15.0713 9.92847C14.5193 9.92847 14.0713 10.3765 14.0713 10.9285V11.9285V12.9285C14.0713 13.4805 13.6243 13.9285 13.0713 13.9285H3.07129C2.51929 13.9285 2.07129 13.4805 2.07129 12.9285V11.9285V10.9285C2.07129 10.3765 1.62429 9.92847 1.07129 9.92847C0.519289 9.92847 0.0712891 10.3765 0.0712891 10.9285V11.9285V13.9285C0.0712891 15.0335 0.967289 15.9285 2.07129 15.9285H14.0713C15.1763 15.9285 16.0713 15.0335 16.0713 13.9285V11.9285V10.9285C16.0713 10.3765 15.6243 9.92847 15.0713 9.92847Z" fill="#7F8FA4"/>
</svg>
