<svg width="17" height="16" viewBox="0 0 17 16" fill="none" xmlns="http://www.w3.org/2000/svg">
<path fill-rule="evenodd" clip-rule="evenodd" d="M7.31229 10.888C7.50029 11.076 7.75429 11.181 8.02029 11.181C8.03329 11.181 8.04329 11.174 8.05629 11.174C8.06129 11.174 8.06629 11.177 8.07129 11.177C8.40829 11.177 8.69129 11 8.87229 10.746L11.7663 7.864C12.1583 7.474 12.1583 6.841 11.7663 6.45C11.3753 6.06 10.7413 6.06 10.3493 6.45L9.07129 7.721V1.177C9.07129 0.625002 8.62429 0.177002 8.07129 0.177002C7.51929 0.177002 7.07129 0.625002 7.07129 1.177V7.797L5.76229 6.458C5.37129 6.068 4.73729 6.068 4.34629 6.458C3.95429 6.849 3.95429 7.482 4.34629 7.872L7.31229 10.888ZM15.0713 9.177C14.5193 9.177 14.0713 9.625 14.0713 10.177V11.177V12.177C14.0713 12.729 13.6243 13.177 13.0713 13.177H3.07129C2.51929 13.177 2.07129 12.729 2.07129 12.177V11.177V10.177C2.07129 9.625 1.62429 9.177 1.07129 9.177C0.519289 9.177 0.0712891 9.625 0.0712891 10.177V11.177V13.177C0.0712891 14.282 0.967289 15.177 2.07129 15.177H14.0713C15.1763 15.177 16.0713 14.282 16.0713 13.177V11.177V10.177C16.0713 9.625 15.6243 9.177 15.0713 9.177Z" fill="#249533"/>
</svg>
