<svg width="17" height="16" viewBox="0 0 17 16" fill="none" xmlns="http://www.w3.org/2000/svg">
<path d="M1.5 1.19951H15.6667C15.7384 1.19951 15.8 1.26111 15.8 1.33285V6.33284C15.8 6.40458 15.7384 6.46618 15.6667 6.46618H1.5C1.42826 6.46618 1.36666 6.40458 1.36666 6.33284V1.33285C1.36666 1.26111 1.42826 1.19951 1.5 1.19951ZM1.5 9.53284H15.6667C15.7384 9.53284 15.8 9.59444 15.8 9.66618V14.6662C15.8 14.7379 15.7384 14.7995 15.6667 14.7995H1.5C1.42826 14.7995 1.36666 14.7379 1.36666 14.6662V9.66618C1.36666 9.59444 1.42826 9.53284 1.5 9.53284Z" stroke="#C2CFE0" stroke-width="1.4"/>
</svg>
