<svg width="76" height="15" viewBox="0 0 76 15" fill="none" xmlns="http://www.w3.org/2000/svg">
<path d="M5.10006 1.436C6.42006 1.436 7.57806 1.694 8.57407 2.21C9.58207 2.726 10.3561 3.464 10.8961 4.424C11.4481 5.372 11.7241 6.476 11.7241 7.736C11.7241 8.996 11.4481 10.1 10.8961 11.048C10.3561 11.984 9.58207 12.71 8.57407 13.226C7.57806 13.742 6.42006 14 5.10006 14H0.708065V1.436H5.10006ZM5.01006 11.858C6.33006 11.858 7.35006 11.498 8.07006 10.778C8.79007 10.058 9.15007 9.044 9.15007 7.736C9.15007 6.428 8.79007 5.408 8.07006 4.676C7.35006 3.932 6.33006 3.56 5.01006 3.56H3.22806V11.858H5.01006ZM12.9624 8.978C12.9624 7.97 13.1604 7.076 13.5564 6.296C13.9644 5.516 14.5104 4.916 15.1944 4.496C15.8904 4.076 16.6644 3.866 17.5164 3.866C18.2604 3.866 18.9084 4.016 19.4604 4.316C20.0244 4.616 20.4744 4.994 20.8104 5.45V4.028H23.3484V14H20.8104V12.542C20.4864 13.01 20.0364 13.4 19.4604 13.712C18.8964 14.012 18.2424 14.162 17.4984 14.162C16.6584 14.162 15.8904 13.946 15.1944 13.514C14.5104 13.082 13.9644 12.476 13.5564 11.696C13.1604 10.904 12.9624 9.998 12.9624 8.978ZM20.8104 9.014C20.8104 8.402 20.6904 7.88 20.4504 7.448C20.2104 7.004 19.8864 6.668 19.4784 6.44C19.0704 6.2 18.6324 6.08 18.1644 6.08C17.6964 6.08 17.2644 6.194 16.8684 6.422C16.4724 6.65 16.1484 6.986 15.8964 7.43C15.6564 7.862 15.5364 8.378 15.5364 8.978C15.5364 9.578 15.6564 10.106 15.8964 10.562C16.1484 11.006 16.4724 11.348 16.8684 11.588C17.2764 11.828 17.7084 11.948 18.1644 11.948C18.6324 11.948 19.0704 11.834 19.4784 11.606C19.8864 11.366 20.2104 11.03 20.4504 10.598C20.6904 10.154 20.8104 9.626 20.8104 9.014ZM28.7436 6.098V10.922C28.7436 11.258 28.8216 11.504 28.9776 11.66C29.1456 11.804 29.4216 11.876 29.8056 11.876H30.9756V14H29.3916C27.2676 14 26.2056 12.968 26.2056 10.904V6.098H25.0176V4.028H26.2056V1.562H28.7436V4.028H30.9756V6.098H28.7436ZM32.1401 8.978C32.1401 7.97 32.3381 7.076 32.7341 6.296C33.1421 5.516 33.6881 4.916 34.3721 4.496C35.0681 4.076 35.8421 3.866 36.6941 3.866C37.4381 3.866 38.0861 4.016 38.6381 4.316C39.2021 4.616 39.6521 4.994 39.9881 5.45V4.028H42.5261V14H39.9881V12.542C39.6641 13.01 39.2141 13.4 38.6381 13.712C38.0741 14.012 37.4201 14.162 36.6761 14.162C35.8361 14.162 35.0681 13.946 34.3721 13.514C33.6881 13.082 33.1421 12.476 32.7341 11.696C32.3381 10.904 32.1401 9.998 32.1401 8.978ZM39.9881 9.014C39.9881 8.402 39.8681 7.88 39.6281 7.448C39.3881 7.004 39.0641 6.668 38.6561 6.44C38.2481 6.2 37.8101 6.08 37.3421 6.08C36.8741 6.08 36.4421 6.194 36.0461 6.422C35.6501 6.65 35.3261 6.986 35.0741 7.43C34.8341 7.862 34.7141 8.378 34.7141 8.978C34.7141 9.578 34.8341 10.106 35.0741 10.562C35.3261 11.006 35.6501 11.348 36.0461 11.588C36.4541 11.828 36.8861 11.948 37.3421 11.948C37.8101 11.948 38.2481 11.834 38.6561 11.606C39.0641 11.366 39.3881 11.03 39.6281 10.598C39.8681 10.154 39.9881 9.626 39.9881 9.014Z" fill="black"/>
<path d="M47.5074 12.002H51.6474V14H44.9874V1.436H47.5074V12.002ZM52.6011 8.978C52.6011 7.97 52.7991 7.076 53.1951 6.296C53.6031 5.516 54.1491 4.916 54.8331 4.496C55.5291 4.076 56.3031 3.866 57.1551 3.866C57.8991 3.866 58.5471 4.016 59.0991 4.316C59.6631 4.616 60.1131 4.994 60.4491 5.45V4.028H62.9871V14H60.4491V12.542C60.1251 13.01 59.6751 13.4 59.0991 13.712C58.5351 14.012 57.8811 14.162 57.1371 14.162C56.2971 14.162 55.5291 13.946 54.8331 13.514C54.1491 13.082 53.6031 12.476 53.1951 11.696C52.7991 10.904 52.6011 9.998 52.6011 8.978ZM60.4491 9.014C60.4491 8.402 60.3291 7.88 60.0891 7.448C59.8491 7.004 59.5251 6.668 59.1171 6.44C58.7091 6.2 58.2711 6.08 57.8031 6.08C57.3351 6.08 56.9031 6.194 56.5071 6.422C56.1111 6.65 55.7871 6.986 55.5351 7.43C55.2951 7.862 55.1751 8.378 55.1751 8.978C55.1751 9.578 55.2951 10.106 55.5351 10.562C55.7871 11.006 56.1111 11.348 56.5071 11.588C56.9151 11.828 57.3471 11.948 57.8031 11.948C58.2711 11.948 58.7091 11.834 59.1171 11.606C59.5251 11.366 59.8491 11.03 60.0891 10.598C60.3291 10.154 60.4491 9.626 60.4491 9.014ZM67.9683 5.486C68.2923 5.006 68.7363 4.616 69.3003 4.316C69.8763 4.016 70.5303 3.866 71.2623 3.866C72.1143 3.866 72.8823 4.076 73.5663 4.496C74.2623 4.916 74.8083 5.516 75.2043 6.296C75.6123 7.064 75.8163 7.958 75.8163 8.978C75.8163 9.998 75.6123 10.904 75.2043 11.696C74.8083 12.476 74.2623 13.082 73.5663 13.514C72.8823 13.946 72.1143 14.162 71.2623 14.162C70.5183 14.162 69.8643 14.018 69.3003 13.73C68.7483 13.43 68.3043 13.046 67.9683 12.578V14H65.4483V0.68H67.9683V5.486ZM73.2423 8.978C73.2423 8.378 73.1163 7.862 72.8643 7.43C72.6243 6.986 72.3003 6.65 71.8923 6.422C71.4963 6.194 71.0643 6.08 70.5963 6.08C70.1403 6.08 69.7083 6.2 69.3003 6.44C68.9043 6.668 68.5803 7.004 68.3283 7.448C68.0883 7.892 67.9683 8.414 67.9683 9.014C67.9683 9.614 68.0883 10.136 68.3283 10.58C68.5803 11.024 68.9043 11.366 69.3003 11.606C69.7083 11.834 70.1403 11.948 70.5963 11.948C71.0643 11.948 71.4963 11.828 71.8923 11.588C72.3003 11.348 72.6243 11.006 72.8643 10.562C73.1163 10.118 73.2423 9.59 73.2423 8.978Z" fill="#E8563F"/>
</svg>
