<svg width="11" height="14" viewBox="0 0 11 14" fill="none" xmlns="http://www.w3.org/2000/svg">
<path fill-rule="evenodd" clip-rule="evenodd" d="M10.7233 9.47946C10.3406 12.0118 8.19825 13.9652 5.55888 13.9652C2.64868 13.9652 0.289062 11.6056 0.289062 8.69454C0.289062 5.78354 2.64868 3.42392 5.55888 3.42392C5.91323 3.42392 6.25785 3.46122 6.59192 3.52771L5.40563 2.36249C5.09101 2.04544 5.09101 1.53135 5.40563 1.21349C5.71943 0.896446 6.22866 0.896446 6.54327 1.21349L8.97587 3.61933C9.12669 3.77178 9.21102 3.97774 9.21102 4.19343C9.21102 4.40993 9.12669 4.61589 8.97587 4.76833L6.53678 7.23093C6.22217 7.54879 5.71294 7.54879 5.39833 7.23093C5.08452 6.91388 5.08452 6.39979 5.39833 6.08193L6.33326 5.1389C6.0827 5.08376 5.82647 5.04565 5.55888 5.04565C3.54388 5.04565 1.91079 6.67954 1.91079 8.69454C1.91079 10.7104 3.54388 12.3434 5.55888 12.3434C7.43522 12.3434 8.9629 10.922 9.16723 9.09998H9.20778C9.20778 8.65238 9.57104 8.28911 10.0195 8.28911C10.4671 8.28911 10.8295 8.65238 10.8295 9.09998C10.8295 9.23945 10.7857 9.36513 10.7233 9.47946Z" fill="#BBC5D5"/>
</svg>
