<svg width="16" height="16" viewBox="0 0 16 16" fill="none" xmlns="http://www.w3.org/2000/svg">
<path fill-rule="evenodd" clip-rule="evenodd" d="M4 9H6V7H4V9ZM4 12H6V10H4V12ZM7 9H9V7H7V9ZM7 12H9V10H7V12ZM10 9H12V7H10V9ZM10 12H12V10H10V12ZM14 6C14 5.448 13.552 5 13 5H3C2.448 5 2 5.448 2 6V13C2 13.552 2.448 14 3 14H13C13.552 14 14 13.552 14 13V6ZM14 16H2C0.896 16 0 15.105 0 14V2C0 0.895 0.896 0 2 0H4V1C4 1.552 4.448 2 5 2C5.552 2 6 1.552 6 1V0H10V1C10 1.552 10.448 2 11 2C11.552 2 12 1.552 12 1V0H14C15.105 0 16 0.895 16 2V14C16 15.105 15.105 16 14 16Z" fill="#CED0DA"/>
</svg>
